<mxfile host="app.diagrams.net" modified="2024-04-23T16:49:23.641Z" agent="Mozilla/5.0 (Windows NT 10.0; Win64; x64; rv:120.0) Gecko/20100101 Firefox/120.0" etag="r5Nb0k9qy1RQoj53f_rJ" version="24.2.5" type="device">
  <diagram name="Page-1" id="fT_AVNGT5908MJ5eCFL8">
    <mxGraphModel dx="778" dy="399" grid="1" gridSize="10" guides="1" tooltips="1" connect="1" arrows="1" fold="1" page="1" pageScale="1" pageWidth="850" pageHeight="1100" math="0" shadow="0">
      <root>
        <mxCell id="0" />
        <mxCell id="1" parent="0" />
        <mxCell id="e57eLdUjEsUWknjUuJBO-13" style="edgeStyle=orthogonalEdgeStyle;rounded=0;orthogonalLoop=1;jettySize=auto;html=1;" edge="1" parent="1" source="e57eLdUjEsUWknjUuJBO-1" target="e57eLdUjEsUWknjUuJBO-9">
          <mxGeometry relative="1" as="geometry" />
        </mxCell>
        <mxCell id="e57eLdUjEsUWknjUuJBO-1" value="Character" style="swimlane;fontStyle=0;childLayout=stackLayout;horizontal=1;startSize=30;horizontalStack=0;resizeParent=1;resizeParentMax=0;resizeLast=0;collapsible=1;marginBottom=0;whiteSpace=wrap;html=1;" vertex="1" parent="1">
          <mxGeometry x="40" y="30" width="140" height="140" as="geometry" />
        </mxCell>
        <mxCell id="e57eLdUjEsUWknjUuJBO-2" value="&lt;div&gt;Name&lt;/div&gt;&lt;div&gt;level&lt;br&gt;&lt;/div&gt;" style="text;strokeColor=none;fillColor=none;align=left;verticalAlign=middle;spacingLeft=4;spacingRight=4;overflow=hidden;points=[[0,0.5],[1,0.5]];portConstraint=eastwest;rotatable=0;whiteSpace=wrap;html=1;" vertex="1" parent="e57eLdUjEsUWknjUuJBO-1">
          <mxGeometry y="30" width="140" height="30" as="geometry" />
        </mxCell>
        <mxCell id="e57eLdUjEsUWknjUuJBO-3" value="&lt;div&gt;Health&lt;/div&gt;&lt;div&gt;Strength&lt;/div&gt;" style="text;strokeColor=none;fillColor=none;align=left;verticalAlign=middle;spacingLeft=4;spacingRight=4;overflow=hidden;points=[[0,0.5],[1,0.5]];portConstraint=eastwest;rotatable=0;whiteSpace=wrap;html=1;" vertex="1" parent="e57eLdUjEsUWknjUuJBO-1">
          <mxGeometry y="60" width="140" height="30" as="geometry" />
        </mxCell>
        <mxCell id="e57eLdUjEsUWknjUuJBO-4" value="Dexterity&lt;br&gt;&lt;div&gt;Intelligence&lt;/div&gt;&lt;div&gt;Inventory&lt;br&gt;&lt;/div&gt;" style="text;strokeColor=none;fillColor=none;align=left;verticalAlign=middle;spacingLeft=4;spacingRight=4;overflow=hidden;points=[[0,0.5],[1,0.5]];portConstraint=eastwest;rotatable=0;whiteSpace=wrap;html=1;" vertex="1" parent="e57eLdUjEsUWknjUuJBO-1">
          <mxGeometry y="90" width="140" height="50" as="geometry" />
        </mxCell>
        <mxCell id="e57eLdUjEsUWknjUuJBO-5" value="item" style="swimlane;fontStyle=0;childLayout=stackLayout;horizontal=1;startSize=30;horizontalStack=0;resizeParent=1;resizeParentMax=0;resizeLast=0;collapsible=1;marginBottom=0;whiteSpace=wrap;html=1;" vertex="1" parent="1">
          <mxGeometry x="190" y="30" width="140" height="140" as="geometry" />
        </mxCell>
        <mxCell id="e57eLdUjEsUWknjUuJBO-6" value="&lt;div&gt;Name&lt;/div&gt;&lt;div&gt;Type&lt;br&gt;&lt;/div&gt;" style="text;strokeColor=none;fillColor=none;align=left;verticalAlign=middle;spacingLeft=4;spacingRight=4;overflow=hidden;points=[[0,0.5],[1,0.5]];portConstraint=eastwest;rotatable=0;whiteSpace=wrap;html=1;" vertex="1" parent="e57eLdUjEsUWknjUuJBO-5">
          <mxGeometry y="30" width="140" height="40" as="geometry" />
        </mxCell>
        <mxCell id="e57eLdUjEsUWknjUuJBO-7" value="Value" style="text;strokeColor=none;fillColor=none;align=left;verticalAlign=middle;spacingLeft=4;spacingRight=4;overflow=hidden;points=[[0,0.5],[1,0.5]];portConstraint=eastwest;rotatable=0;whiteSpace=wrap;html=1;" vertex="1" parent="e57eLdUjEsUWknjUuJBO-5">
          <mxGeometry y="70" width="140" height="30" as="geometry" />
        </mxCell>
        <mxCell id="e57eLdUjEsUWknjUuJBO-8" value="Weight" style="text;strokeColor=none;fillColor=none;align=left;verticalAlign=middle;spacingLeft=4;spacingRight=4;overflow=hidden;points=[[0,0.5],[1,0.5]];portConstraint=eastwest;rotatable=0;whiteSpace=wrap;html=1;" vertex="1" parent="e57eLdUjEsUWknjUuJBO-5">
          <mxGeometry y="100" width="140" height="40" as="geometry" />
        </mxCell>
        <mxCell id="e57eLdUjEsUWknjUuJBO-9" value="Game" style="swimlane;fontStyle=0;childLayout=stackLayout;horizontal=1;startSize=30;horizontalStack=0;resizeParent=1;resizeParentMax=0;resizeLast=0;collapsible=1;marginBottom=0;whiteSpace=wrap;html=1;" vertex="1" parent="1">
          <mxGeometry x="40" y="230" width="140" height="170" as="geometry" />
        </mxCell>
        <mxCell id="e57eLdUjEsUWknjUuJBO-15" value="" style="endArrow=none;html=1;rounded=0;entryX=0.996;entryY=-0.004;entryDx=0;entryDy=0;entryPerimeter=0;" edge="1" parent="e57eLdUjEsUWknjUuJBO-9" target="e57eLdUjEsUWknjUuJBO-12">
          <mxGeometry width="50" height="50" relative="1" as="geometry">
            <mxPoint y="60" as="sourcePoint" />
            <mxPoint x="50" y="10" as="targetPoint" />
          </mxGeometry>
        </mxCell>
        <mxCell id="e57eLdUjEsUWknjUuJBO-10" value="&lt;div&gt;Characters&lt;/div&gt;&lt;div&gt;items&lt;br&gt;&lt;/div&gt;" style="text;strokeColor=none;fillColor=none;align=left;verticalAlign=middle;spacingLeft=4;spacingRight=4;overflow=hidden;points=[[0,0.5],[1,0.5]];portConstraint=eastwest;rotatable=0;whiteSpace=wrap;html=1;" vertex="1" parent="e57eLdUjEsUWknjUuJBO-9">
          <mxGeometry y="30" width="140" height="30" as="geometry" />
        </mxCell>
        <mxCell id="e57eLdUjEsUWknjUuJBO-12" value="&lt;div&gt;AddCharacter()&lt;/div&gt;&lt;div&gt;RemoveCharacter()&lt;/div&gt;&lt;div&gt;AddItem()&lt;/div&gt;&lt;div&gt;AddItemToInv()&lt;/div&gt;&lt;div&gt;RemoveItemFromInv()&lt;/div&gt;&lt;div&gt;FindCharByName()&lt;/div&gt;&lt;div&gt;SaveToFile()&lt;br&gt;&lt;/div&gt;" style="text;strokeColor=none;fillColor=none;align=left;verticalAlign=middle;spacingLeft=4;spacingRight=4;overflow=hidden;points=[[0,0.5],[1,0.5]];portConstraint=eastwest;rotatable=0;whiteSpace=wrap;html=1;" vertex="1" parent="e57eLdUjEsUWknjUuJBO-9">
          <mxGeometry y="60" width="140" height="110" as="geometry" />
        </mxCell>
        <mxCell id="e57eLdUjEsUWknjUuJBO-16" value="Program" style="swimlane;fontStyle=0;childLayout=stackLayout;horizontal=1;startSize=30;horizontalStack=0;resizeParent=1;resizeParentMax=0;resizeLast=0;collapsible=1;marginBottom=0;whiteSpace=wrap;html=1;" vertex="1" parent="1">
          <mxGeometry x="40" y="440" width="140" height="180" as="geometry" />
        </mxCell>
        <mxCell id="e57eLdUjEsUWknjUuJBO-17" value="&lt;div&gt;Main&lt;/div&gt;&lt;div&gt;CreateCharacter&lt;br&gt;RemoveCharacter&lt;br&gt;Createitem&lt;/div&gt;&lt;div&gt;AddItemToChar&lt;/div&gt;&lt;div&gt;RemoveItemFromChar&lt;/div&gt;&lt;div&gt;UpdateCharStat&lt;/div&gt;&lt;div&gt;DisplayCharInv&lt;/div&gt;&lt;div&gt;FindCharByName&lt;/div&gt;&lt;div&gt;SaveToFile&lt;br&gt;&lt;/div&gt;" style="text;strokeColor=none;fillColor=none;align=left;verticalAlign=middle;spacingLeft=4;spacingRight=4;overflow=hidden;points=[[0,0.5],[1,0.5]];portConstraint=eastwest;rotatable=0;whiteSpace=wrap;html=1;" vertex="1" parent="e57eLdUjEsUWknjUuJBO-16">
          <mxGeometry y="30" width="140" height="150" as="geometry" />
        </mxCell>
        <mxCell id="e57eLdUjEsUWknjUuJBO-20" style="edgeStyle=orthogonalEdgeStyle;rounded=0;orthogonalLoop=1;jettySize=auto;html=1;" edge="1" parent="1" source="e57eLdUjEsUWknjUuJBO-12" target="e57eLdUjEsUWknjUuJBO-16">
          <mxGeometry relative="1" as="geometry">
            <Array as="points">
              <mxPoint x="110" y="430" />
              <mxPoint x="110" y="430" />
            </Array>
          </mxGeometry>
        </mxCell>
        <mxCell id="e57eLdUjEsUWknjUuJBO-23" value="Characters" style="text;html=1;align=center;verticalAlign=middle;whiteSpace=wrap;rounded=0;" vertex="1" parent="1">
          <mxGeometry x="550" y="10" width="60" height="30" as="geometry" />
        </mxCell>
        <mxCell id="e57eLdUjEsUWknjUuJBO-24" value="" style="endArrow=none;html=1;rounded=0;" edge="1" parent="1">
          <mxGeometry width="50" height="50" relative="1" as="geometry">
            <mxPoint x="580" y="100" as="sourcePoint" />
            <mxPoint x="580" y="40" as="targetPoint" />
          </mxGeometry>
        </mxCell>
        <mxCell id="e57eLdUjEsUWknjUuJBO-25" value="Character" style="text;html=1;align=center;verticalAlign=middle;whiteSpace=wrap;rounded=0;" vertex="1" parent="1">
          <mxGeometry x="600" y="85" width="60" height="30" as="geometry" />
        </mxCell>
        <mxCell id="e57eLdUjEsUWknjUuJBO-26" value="" style="endArrow=none;html=1;rounded=0;entryX=0;entryY=0.5;entryDx=0;entryDy=0;" edge="1" parent="1" target="e57eLdUjEsUWknjUuJBO-25">
          <mxGeometry width="50" height="50" relative="1" as="geometry">
            <mxPoint x="580" y="100" as="sourcePoint" />
            <mxPoint x="630" y="55" as="targetPoint" />
          </mxGeometry>
        </mxCell>
        <mxCell id="e57eLdUjEsUWknjUuJBO-27" value="" style="endArrow=none;dashed=1;html=1;rounded=0;" edge="1" parent="1">
          <mxGeometry width="50" height="50" relative="1" as="geometry">
            <mxPoint x="630" y="220" as="sourcePoint" />
            <mxPoint x="630" y="110" as="targetPoint" />
          </mxGeometry>
        </mxCell>
        <mxCell id="e57eLdUjEsUWknjUuJBO-28" value="" style="endArrow=none;dashed=1;html=1;rounded=0;" edge="1" parent="1">
          <mxGeometry width="50" height="50" relative="1" as="geometry">
            <mxPoint x="630" y="140" as="sourcePoint" />
            <mxPoint x="650" y="140" as="targetPoint" />
          </mxGeometry>
        </mxCell>
        <mxCell id="e57eLdUjEsUWknjUuJBO-29" value="&lt;ul style=&quot;font-size: 6px;&quot;&gt;&lt;li style=&quot;font-size: 6px;&quot;&gt;Name&lt;br style=&quot;font-size: 6px;&quot;&gt;&lt;/li&gt;&lt;li style=&quot;font-size: 6px;&quot;&gt;level&lt;br style=&quot;font-size: 6px;&quot;&gt;&lt;/li&gt;&lt;li style=&quot;font-size: 6px;&quot;&gt;Health&lt;/li&gt;&lt;li style=&quot;font-size: 6px;&quot;&gt;Strength&lt;/li&gt;&lt;li style=&quot;font-size: 6px;&quot;&gt;Dexterity&lt;/li&gt;&lt;li style=&quot;font-size: 6px;&quot;&gt;Intelligence&lt;br style=&quot;font-size: 6px;&quot;&gt;&lt;/li&gt;&lt;/ul&gt;" style="text;strokeColor=none;fillColor=none;html=1;whiteSpace=wrap;verticalAlign=middle;overflow=hidden;fontSize=6;" vertex="1" parent="1">
          <mxGeometry x="620" y="100" width="110" height="110" as="geometry" />
        </mxCell>
        <mxCell id="e57eLdUjEsUWknjUuJBO-31" value="" style="endArrow=none;dashed=1;html=1;rounded=0;" edge="1" parent="1">
          <mxGeometry width="50" height="50" relative="1" as="geometry">
            <mxPoint x="630" y="220" as="sourcePoint" />
            <mxPoint x="650" y="220" as="targetPoint" />
          </mxGeometry>
        </mxCell>
        <mxCell id="e57eLdUjEsUWknjUuJBO-34" value="&lt;font style=&quot;font-size: 12px;&quot;&gt;Inventory&lt;/font&gt;" style="text;strokeColor=none;fillColor=none;html=1;fontSize=24;fontStyle=1;verticalAlign=middle;align=center;" vertex="1" parent="1">
          <mxGeometry x="647.5" y="200" width="55" height="30" as="geometry" />
        </mxCell>
        <mxCell id="e57eLdUjEsUWknjUuJBO-36" value="" style="endArrow=none;dashed=1;html=1;dashPattern=1 3;strokeWidth=2;rounded=0;" edge="1" parent="1">
          <mxGeometry width="50" height="50" relative="1" as="geometry">
            <mxPoint x="675" y="270" as="sourcePoint" />
            <mxPoint x="674.86" y="220" as="targetPoint" />
          </mxGeometry>
        </mxCell>
        <mxCell id="e57eLdUjEsUWknjUuJBO-37" value="" style="endArrow=none;dashed=1;html=1;dashPattern=1 3;strokeWidth=2;rounded=0;" edge="1" parent="1">
          <mxGeometry width="50" height="50" relative="1" as="geometry">
            <mxPoint x="680" y="270" as="sourcePoint" />
            <mxPoint x="700" y="270" as="targetPoint" />
          </mxGeometry>
        </mxCell>
        <mxCell id="e57eLdUjEsUWknjUuJBO-39" value="Item" style="swimlane;fontStyle=0;childLayout=stackLayout;horizontal=1;startSize=30;horizontalStack=0;resizeParent=1;resizeParentMax=0;resizeLast=0;collapsible=1;marginBottom=0;whiteSpace=wrap;html=1;" vertex="1" parent="1">
          <mxGeometry x="690" y="255" width="140" height="90" as="geometry" />
        </mxCell>
        <mxCell id="e57eLdUjEsUWknjUuJBO-40" value="&lt;div&gt;Name&lt;/div&gt;&lt;div&gt;Type&lt;br&gt;&lt;/div&gt;" style="text;strokeColor=none;fillColor=none;align=left;verticalAlign=middle;spacingLeft=4;spacingRight=4;overflow=hidden;points=[[0,0.5],[1,0.5]];portConstraint=eastwest;rotatable=0;whiteSpace=wrap;html=1;" vertex="1" parent="e57eLdUjEsUWknjUuJBO-39">
          <mxGeometry y="30" width="140" height="30" as="geometry" />
        </mxCell>
        <mxCell id="e57eLdUjEsUWknjUuJBO-41" value="Value&lt;br&gt;Weight" style="text;strokeColor=none;fillColor=none;align=left;verticalAlign=middle;spacingLeft=4;spacingRight=4;overflow=hidden;points=[[0,0.5],[1,0.5]];portConstraint=eastwest;rotatable=0;whiteSpace=wrap;html=1;" vertex="1" parent="e57eLdUjEsUWknjUuJBO-39">
          <mxGeometry y="60" width="140" height="30" as="geometry" />
        </mxCell>
      </root>
    </mxGraphModel>
  </diagram>
</mxfile>
